classDiagram
    %% Parameters:
%%   Focus: partner
%%   Domains: partner
%%   Chart Type: Class
    class pathway_ruleSelfRegistration {
        +UUID ObjectID
        +string name
    }

    class pathway_dmImage {
        +UUID ObjectID
        +string name
    }

    class pathway_center {
        +UUID ObjectID
        +string name
    }

    class pathway_guide {
        +UUID ObjectID
        +string name
    }

    class pathway_media {
        +UUID ObjectID
        +string name
    }

    class pathway_member {
        +UUID ObjectID
        +string name
    }

    class pathway_memberGroup {
        +UUID ObjectID
        +string name
    }

    class pathway_partner {
        +UUID ObjectID
        +string name
    }

    class pathway_programme {
        +UUID ObjectID
        +string name
    }

    class pathway_referer {
        +UUID ObjectID
        +string name
    }

    class pathway_report {
        +UUID ObjectID
        +string name
    }

    class zfarcrycore_dmProfile {
        +UUID ObjectID
        +string name
    }

    pathway_ruleSelfRegistration --> pathway_memberGroup : memberGroupID
    pathway_ruleSelfRegistration --> pathway_partner : partnerID
    pathway_ruleSelfRegistration --> pathway_center : centerID
    pathway_ruleSelfRegistration --> pathway_referer : refererID
    pathway_center --> pathway_dmImage : Logo
    pathway_center --> zfarcrycore_dmProfile : dmProfileID
    pathway_center --> pathway_partner : partnerID
    pathway_center --> pathway_memberGroup : memberGroupID
    pathway_guide --> pathway_dmImage : picture
    pathway_guide --> pathway_partner : partnerID
    pathway_guide --> pathway_center : centerID
    pathway_media --> pathway_guide : guideID
    pathway_media --> pathway_partner : partnerID
    pathway_media --> pathway_programme : programmeID
    pathway_member --> pathway_memberGroup : memberGroupID
    pathway_member --> pathway_partner : partnerID
    pathway_member --> pathway_center : centerID
    pathway_member --> pathway_referer : refererID
    pathway_memberGroup --> pathway_partner : partnerID
    pathway_memberGroup --> pathway_dmImage : Logo
    pathway_partner --> pathway_dmImage : Logo
    pathway_partner --> zfarcrycore_dmProfile : dmProfileID
    pathway_partner --> zfarcrycore_dmProfile : seniorSupportID
    pathway_programme --> pathway_partner : partnerID
    pathway_programme --> pathway_dmImage : Logo
    pathway_referer --> pathway_dmImage : picture
    pathway_referer --> zfarcrycore_dmProfile : dmProfileID
    pathway_referer --> pathway_partner : partnerID
    pathway_referer --> pathway_memberGroup : memberGroupID
    pathway_referer --> pathway_center : centerID
    pathway_report --> pathway_programme : programmeID
    pathway_report --> pathway_partner : partnerID
    pathway_report --> pathway_member : memberID
    zfarcrycore_dmProfile --> pathway_memberGroup : memberGroupID
    pathway_center --> zfarcrycore_dmProfile : aUsers
    pathway_center --> pathway_referer : aReferers
    pathway_partner --> pathway_center : aCenters
    pathway_partner --> pathway_referer : aReferers
    pathway_report --> pathway_memberGroup : aMemberGroupID

    %% Entity Styling
    style pathway_ruleSelfRegistration fill:#1963d2,stroke:#1565c0,stroke-width:4px,color:#fff
    style pathway_dmImage fill:#1963d2,stroke:#1565c0,stroke-width:4px,color:#fff
    style pathway_center fill:#693a00,stroke:#5d2e00,stroke-width:4px,color:#fff
    style pathway_guide fill:#1963d2,stroke:#1565c0,stroke-width:4px,color:#fff
    style pathway_media fill:#693a00,stroke:#5d2e00,stroke-width:4px,color:#fff
    style pathway_member fill:#1963d2,stroke:#1565c0,stroke-width:4px,color:#fff
    style pathway_memberGroup fill:#693a00,stroke:#5d2e00,stroke-width:4px,color:#fff
    style pathway_partner fill:#d75500,stroke:#f57c00,stroke-width:4px,color:#fff
    style pathway_programme fill:#693a00,stroke:#5d2e00,stroke-width:4px,color:#fff
    style pathway_referer fill:#693a00,stroke:#5d2e00,stroke-width:4px,color:#fff
    style pathway_report fill:#1963d2,stroke:#1565c0,stroke-width:4px,color:#fff
    style zfarcrycore_dmProfile fill:#693a00,stroke:#5d2e00,stroke-width:4px,color:#fff

