erDiagram
    ruleImageGallerySlick
    dmImage
    ruleSelfRegistration
    partner
    activity
    programme
    guide
    progRole
    media
    journalDef
    trackerDef
    center
    dmProfile
    memberGroup
    intake
    referer
    report
    testimonial
    %% Farcry Activity Definition %%
    activityDef
    %% Interact Activity Entities %%
    aInteract1Activities
    aInteract2Activities
    aInteract3Activities
    aInteract4Activities
    aInteract5Activities
    %% Tracker ID Relationships %%
    activityDef }o--|| trackerDef : "tracker01ID"
    activityDef }o--|| trackerDef : "tracker02ID"
    activityDef }o--|| trackerDef : "tracker03ID"
    activityDef }o--|| trackerDef : "tracker04ID"
    activityDef }o--|| trackerDef : "tracker05ID"
    %% Interact Activity Relationships %%
    activityDef }o--|| activityDef : "aInteract1Activities"
    activityDef }o--|| activityDef : "aInteract2Activities"
    activityDef }o--|| activityDef : "aInteract3Activities"
    activityDef }o--|| activityDef : "aInteract4Activities"
    activityDef }o--|| activityDef : "aInteract5Activities"
    ruleImageGallerySlick }o--|| dmImage : "aImages"
    ruleSelfRegistration }o--|| partner : "partnerID"
    activity }o--|| activityDef : "activityDefID"
    activityDef }o--|| programme : "programmeID"
    activityDef }o--|| dmImage : "teaserImage"
    activityDef }o--|| guide : "guideID"
    activityDef }o--|| progRole : "role"
    activityDef }o--|| activityDef : "onEndID"
    activityDef }o--|| media : "defaultMediaID"
    activityDef }o--|| activityDef : "aCuePointActivities"
    activityDef }o--|| media : "aMediaIDs"
    activityDef }o--|| journalDef : "journalID"
    center }o--|| dmImage : "Logo"
    center }o--|| partner : "partnerID"
    center }o--|| memberGroup : "memberGroupID"
    guide }o--|| dmImage : "picture"
    guide }o--|| partner : "partnerID"
    guide }o--|| center : "centerID"
    intake }o--|| center : "centerID"
    media }o--|| guide : "guideID"
    media }o--|| partner : "partnerID"
    media }o--|| programme : "programmeID"
    media }o--|| progRole : "roleID"
    memberGroup }o--|| partner : "partnerID"
    memberGroup }o--|| dmImage : "Logo"
    partner }o--|| dmImage : "Logo"
    partner }o--|| dmProfile : "dmProfileID"
    partner }o--|| dmProfile : "seniorSupportID"
    programme }o--|| partner : "partnerID"
    programme }o--|| dmImage : "Logo"
    programme }o--|| activityDef : "firstActivityDefID"
    programme }o--|| activityDef : "lastActivityDefID"
    programme }o--|| activityDef : "aFollowupActivityDefIDs"
    referer }o--|| dmImage : "picture"
    referer }o--|| partner : "partnerID"
    referer }o--|| center : "centerID"
    report }o--|| partner : "partnerID"
    testimonial }o--|| activityDef : "activityDefID"
style SSQ_HUB fill:#e0e0e0,stroke:#bdbdbd,stroke-width:0px,color:#333
style member fill:#1976d2,stroke:#fff,stroke-width:4px,color:#fff
style progMember fill:#1976d2,stroke:#fff,stroke-width:4px,color:#fff
style activity fill:#1976d2,stroke:#fff,stroke-width:4px,color:#fff
style activityDef fill:#1976d2,stroke:#fff,stroke-width:4px,color:#fff
style programme fill:#1976d2,stroke:#fff,stroke-width:4px,color:#fff
style journal fill:#1976d2,stroke:#fff,stroke-width:4px,color:#fff
style tracker fill:#43a047,stroke:#fff,stroke-width:4px,color:#fff
style report fill:#388e3c,stroke:#fff,stroke-width:3px,color:#fff
style moduleDef fill:#388e3c,stroke:#fff,stroke-width:3px,color:#fff
style module fill:#388e3c,stroke:#fff,stroke-width:3px,color:#fff
style SSQ_arthritis01 fill:#b39ddb,stroke:#7e57c2,stroke-width:2px,color:#222
style SSQ_pain01 fill:#b39ddb,stroke:#7e57c2,stroke-width:2px,color:#222
style SSQ_stress01 fill:#b39ddb,stroke:#7e57c2,stroke-width:2px,color:#222
