erDiagram
    %% Parameters:
%%   Focus: programme
%%   Domains: programme, participant, site
%%   Chart Type: ER
    "pathway_dmImage" {
        UUID ObjectID
    }

    "pathway_dmNavigation" {
        UUID ObjectID
    }

    "pathway_dmNews" {
        UUID ObjectID
    }

    "pathway_activity" {
        UUID ObjectID
    }

    "pathway_activityDef" {
        UUID ObjectID
    }

    "pathway_guide" {
        UUID ObjectID
    }

    "pathway_journal" {
        UUID ObjectID
    }

    "pathway_journalDef" {
        UUID ObjectID
    }

    "pathway_library" {
        UUID ObjectID
    }

    "pathway_media" {
        UUID ObjectID
    }

    "pathway_member" {
        UUID ObjectID
    }

    "pathway_memberGroup" {
        UUID ObjectID
    }

    "pathway_partner" {
        UUID ObjectID
    }

    "pathway_progMember" {
        UUID ObjectID
    }

    "pathway_programme" {
        UUID ObjectID
    }

    "pathway_progRole" {
        UUID ObjectID
    }

    "pathway_report" {
        UUID ObjectID
    }

    "pathway_SSQ_arthritis01" {
        UUID ObjectID
    }

    "pathway_SSQ_pain01" {
        UUID ObjectID
    }

    "pathway_SSQ_stress01" {
        UUID ObjectID
    }

    "pathway_tracker" {
        UUID ObjectID
    }

    "pathway_trackerDef" {
        UUID ObjectID
    }

    "zfarcrycore_dmFile" {
        UUID ObjectID
    }

    "zfarcrycore_dmHTML" {
        UUID ObjectID
    }

    "zfarcrycore_dmInclude" {
        UUID ObjectID
    }

    %% Direct FK Relationships
    "pathway_dmNavigation" ||--|| "pathway_dmImage" : sourceImageID
    "pathway_activity" ||--|| "pathway_progMember" : progMemberID
    "pathway_activity" ||--|| "pathway_activityDef" : activityDefID
    "pathway_activityDef" ||--|| "pathway_programme" : programmeID
    "pathway_activityDef" ||--|| "pathway_dmImage" : teaserImage
    "pathway_activityDef" ||--|| "pathway_guide" : guideID
    "pathway_activityDef" ||--|| "pathway_progRole" : role
    "pathway_activityDef" ||--|| "pathway_media" : defaultMediaID
    "pathway_activityDef" ||--|| "pathway_journalDef" : journalID
    "pathway_activityDef" ||--|| "pathway_trackerDef" : tracker01ID
    "pathway_activityDef" ||--|| "pathway_trackerDef" : tracker02ID
    "pathway_activityDef" ||--|| "pathway_trackerDef" : tracker03ID
    "pathway_activityDef" ||--|| "pathway_trackerDef" : tracker04ID
    "pathway_activityDef" ||--|| "pathway_trackerDef" : tracker05ID
    "pathway_guide" ||--|| "pathway_dmImage" : picture
    "pathway_guide" ||--|| "pathway_partner" : partnerID
    "pathway_journal" ||--|| "pathway_progMember" : progMemberID
    "pathway_journal" ||--|| "pathway_journalDef" : journalDefID
    "pathway_journal" ||--|| "pathway_activity" : activityID
    "pathway_journalDef" ||--|| "pathway_trackerDef" : tracker01ID
    "pathway_journalDef" ||--|| "pathway_trackerDef" : tracker02ID
    "pathway_journalDef" ||--|| "pathway_programme" : programmeID
    "pathway_library" ||--|| "pathway_progMember" : progMemberID
    "pathway_library" ||--|| "pathway_activity" : activityID
    "pathway_library" ||--|| "pathway_media" : mediaID
    "pathway_media" ||--|| "pathway_guide" : guideID
    "pathway_media" ||--|| "pathway_partner" : partnerID
    "pathway_media" ||--|| "pathway_programme" : programmeID
    "pathway_media" ||--|| "pathway_progRole" : roleID
    "pathway_member" ||--|| "pathway_memberGroup" : memberGroupID
    "pathway_member" ||--|| "pathway_partner" : partnerID
    "pathway_member" ||--|| "pathway_activityDef" : activityDefID
    "pathway_member" ||--|| "pathway_progRole" : roleID
    "pathway_memberGroup" ||--|| "pathway_partner" : partnerID
    "pathway_memberGroup" ||--|| "pathway_dmImage" : Logo
    "pathway_memberGroup" ||--|| "zfarcrycore_dmFile" : resourcePosterID
    "pathway_memberGroup" ||--|| "zfarcrycore_dmFile" : resourceHandoutID
    "pathway_memberGroup" ||--|| "zfarcrycore_dmHTML" : supportPage
    "pathway_memberGroup" ||--|| "pathway_dmNavigation" : selfRegNavID
    "pathway_memberGroup" ||--|| "zfarcrycore_dmFile" : selfRegQrFileID
    "pathway_partner" ||--|| "pathway_dmImage" : Logo
    "pathway_progMember" ||--|| "pathway_programme" : programmeID
    "pathway_progMember" ||--|| "pathway_member" : memberID
    "pathway_progMember" ||--|| "pathway_activity" : currActivityID
    "pathway_programme" ||--|| "pathway_partner" : partnerID
    "pathway_programme" ||--|| "pathway_dmImage" : Logo
    "pathway_programme" ||--|| "pathway_activityDef" : firstActivityDefID
    "pathway_programme" ||--|| "pathway_activityDef" : lastActivityDefID
    "pathway_progRole" ||--|| "pathway_programme" : programmeID
    "pathway_report" ||--|| "pathway_programme" : programmeID
    "pathway_report" ||--|| "pathway_partner" : partnerID
    "pathway_report" ||--|| "pathway_member" : memberID
    "pathway_SSQ_arthritis01" ||--|| "pathway_programme" : programmeID
    "pathway_SSQ_arthritis01" ||--|| "pathway_progMember" : progMemberID
    "pathway_SSQ_arthritis01" ||--|| "pathway_member" : memberID
    "pathway_SSQ_pain01" ||--|| "pathway_programme" : programmeID
    "pathway_SSQ_pain01" ||--|| "pathway_progMember" : progMemberID
    "pathway_SSQ_pain01" ||--|| "pathway_member" : memberID
    "pathway_SSQ_stress01" ||--|| "pathway_programme" : programmeID
    "pathway_SSQ_stress01" ||--|| "pathway_progMember" : progMemberID
    "pathway_SSQ_stress01" ||--|| "pathway_member" : memberID
    "pathway_tracker" ||--|| "pathway_progMember" : progMemberID
    "pathway_tracker" ||--|| "pathway_trackerDef" : trackerDefID
    "pathway_tracker" ||--|| "pathway_activity" : activityID
    "pathway_trackerDef" ||--|| "pathway_programme" : programmeID
    "zfarcrycore_dmFile" ||--|| "pathway_dmImage" : teaserImage
    "zfarcrycore_dmHTML" ||--|| "pathway_dmImage" : teaserImage
    "zfarcrycore_dmInclude" ||--|| "pathway_dmImage" : teaserImage
    %% End Direct FK Relationships

    %% Special Joins
    %% End Special Joins

    %% Self-Referencing Relationships for dmNavigation
    %% Self-refs include: internalRedirectID, ExternalLink
    "pathway_dmNavigation" ||--|| "pathway_dmNavigation" : self_refs
    %% End Self-Referencing Relationships for dmNavigation

    %% Self-Referencing Relationships for activityDef
    %% Self-refs include: onEndID, aCuePointActivities, aInteract1Activities, aInteract2Activities, aInteract3Activities, aInteract4Activities, aInteract5Activities
    "pathway_activityDef" ||--|| "pathway_activityDef" : self_refs
    %% End Self-Referencing Relationships for activityDef

    %% Join Table Relationships
    "pathway_activityDef" }o--|| "pathway_media" : aMediaIDs
    "pathway_programme" }o--|| "pathway_activityDef" : aFollowupActivityDefIDs
    "pathway_programme" }o--|| "pathway_trackerDef" : aTrackerIDs
    "pathway_programme" }o--|| "zfarcrycore_dmFile" : aObjectIDs
    "pathway_report" }o--|| "pathway_memberGroup" : aMemberGroupID
    %% End Join Table Relationships


    %% Entity Styling
    style pathway_dmImage fill:#1963d2,stroke:#1565c0,stroke-width:4px,color:#fff
    style pathway_dmNavigation fill:#1a1a1a,stroke:#0d0d0d,stroke-width:1px,color:#fff
    style pathway_dmNews fill:#1a1a1a,stroke:#0d0d0d,stroke-width:1px,color:#fff
    style pathway_activity fill:#1a1a1a,stroke:#0d0d0d,stroke-width:1px,color:#fff
    style pathway_activityDef fill:#693a00,stroke:#5d2e00,stroke-width:4px,color:#fff
    style pathway_guide fill:#44517f,stroke:#37474f,stroke-width:2px,color:#eceff1
    style pathway_journal fill:#1a1a1a,stroke:#0d0d0d,stroke-width:1px,color:#fff
    style pathway_journalDef fill:#1963d2,stroke:#1565c0,stroke-width:4px,color:#fff
    style pathway_library fill:#1a1a1a,stroke:#0d0d0d,stroke-width:1px,color:#fff
    style pathway_media fill:#693a00,stroke:#5d2e00,stroke-width:4px,color:#fff
    style pathway_member fill:#1a1a1a,stroke:#0d0d0d,stroke-width:1px,color:#fff
    style pathway_memberGroup fill:#1a1a1a,stroke:#0d0d0d,stroke-width:1px,color:#fff
    style pathway_partner fill:#1963d2,stroke:#1565c0,stroke-width:4px,color:#fff
    style pathway_progMember fill:#1963d2,stroke:#1565c0,stroke-width:4px,color:#fff
    style pathway_programme fill:#d75500,stroke:#f57c00,stroke-width:4px,color:#fff
    style pathway_progRole fill:#693a00,stroke:#5d2e00,stroke-width:4px,color:#fff
    style pathway_report fill:#1963d2,stroke:#1565c0,stroke-width:4px,color:#fff
    style pathway_SSQ_arthritis01 fill:#8e24aa,stroke:#6a1b9a,stroke-width:2px,color:#fff
    style pathway_SSQ_pain01 fill:#8e24aa,stroke:#6a1b9a,stroke-width:2px,color:#fff
    style pathway_SSQ_stress01 fill:#8e24aa,stroke:#6a1b9a,stroke-width:2px,color:#fff
    style pathway_tracker fill:#1a1a1a,stroke:#0d0d0d,stroke-width:1px,color:#fff
    style pathway_trackerDef fill:#1963d2,stroke:#1565c0,stroke-width:4px,color:#fff
    style zfarcrycore_dmFile fill:#1963d2,stroke:#1565c0,stroke-width:4px,color:#fff
    style zfarcrycore_dmHTML fill:#1a1a1a,stroke:#0d0d0d,stroke-width:1px,color:#fff
    style zfarcrycore_dmInclude fill:#1a1a1a,stroke:#0d0d0d,stroke-width:1px,color:#fff

